<?xml version="1.0" encoding="UTF-8" standalone="no"?>
<!DOCTYPE svg PUBLIC "-//W3C//DTD SVG 1.1//EN" "http://www.w3.org/Graphics/SVG/1.1/DTD/svg11.dtd">
<svg width="100%" height="100%" viewBox="0 0 2481 3508" version="1.1" xmlns="http://www.w3.org/2000/svg" xmlns:xlink="http://www.w3.org/1999/xlink" xml:space="preserve" xmlns:serif="http://www.serif.com/" style="fill-rule:evenodd;clip-rule:evenodd;stroke-linecap:round;stroke-linejoin:round;stroke-miterlimit:1.5;">
    <g>
        <g>
            <g transform="matrix(1,0,0,1,-39.481,41.9401)">
                <g transform="matrix(1200,0,0,1200,1819.29,2132.99)">
                </g>
                <text x="724.756px" y="2132.99px" style="font-family:'Alef-Bold', 'Alef';font-weight:700;font-size:1200px;fill:rgb(13,121,242);">M</text>
            </g>
            <g transform="matrix(1,0,0,1,-39.481,41.9401)">
                <g transform="matrix(1200,0,0,1200,1819.29,2132.99)">
                </g>
                <text x="724.756px" y="2132.99px" style="font-family:'Alef-Bold', 'Alef';font-weight:700;font-size:1200px;fill:rgb(13,121,242);">M</text>
            </g>
            <g transform="matrix(1.24052,0,0,1.24052,-356.276,-342.572)">
                <g transform="matrix(1200,0,0,1200,1819.29,2132.99)">
                </g>
                <text x="724.756px" y="2132.99px" style="font-family:'Alef-Bold', 'Alef';font-weight:700;font-size:1200px;fill:rgb(13,121,242);fill-opacity:0.13;">M</text>
            </g>
            <g transform="matrix(1.08767,0,0,1.08767,-154.562,-103.242)">
                <g transform="matrix(1200,0,0,1200,1819.29,2132.99)">
                </g>
                <text x="724.756px" y="2132.99px" style="font-family:'Alef-Bold', 'Alef';font-weight:700;font-size:1200px;fill:rgb(13,121,242);fill-opacity:0.4;">M</text>
            </g>
        </g>
        <g transform="matrix(1,0,0,1,5,0)">
            <g transform="matrix(0.754201,0,0,0.754201,278.388,310.589)">
                <g transform="matrix(1,0,0,1,0,110.052)">
                    <path d="M779.251,676.733L1254.39,513.974L1726.57,676.733L1254.39,830.164L779.251,676.733Z" style="fill:rgb(13,121,242);stroke:rgb(13,121,242);stroke-width:27.04px;"/>
                </g>
                <g transform="matrix(1,0,0,1,-3.79489,149.681)">
                    <path d="M995.7,773.85C995.7,773.85 1238.78,860.866 1252.91,858.995C1267.04,857.124 1516.86,773.85 1516.86,773.85L1516.86,1018.06C1361.38,1125.08 1188.61,1130.6 995.7,1018.06L995.7,773.85" style="fill:rgb(13,121,242);stroke:rgb(13,121,242);stroke-width:27.04px;"/>
                </g>
            </g>
            <g transform="matrix(0.845167,0,0,0.845167,163.58,236.796)">
                <g transform="matrix(1,0,0,1,0,110.052)">
                    <path d="M779.251,676.733L1254.39,513.974L1726.57,676.733L1254.39,830.164L779.251,676.733Z" style="fill:rgb(13,121,242);fill-opacity:0.37;stroke:rgb(13,121,242);stroke-opacity:0.2;stroke-width:27.94px;"/>
                </g>
                <g transform="matrix(1,0,0,1.13758,-3.79489,6.53275)">
                    <path d="M995.7,773.85C995.7,773.85 1238.78,860.866 1252.91,858.995C1267.04,857.124 1516.86,773.85 1516.86,773.85L1516.86,1018.06C1361.38,1125.08 1188.61,1130.6 995.7,1018.06L995.7,773.85" style="fill:rgb(13,121,242);fill-opacity:0.37;"/>
                </g>
            </g>
        </g>
    </g>
</svg>
